<svg fill="#000000" xmlns="http://www.w3.org/2000/svg" viewBox="0 0 64 64" width="128px" height="128px"><path d="M 17 10 C 8.730469 10 2 16.730469 2 25 L 2 46.183594 C 0.839844 46.597656 0 47.699219 0 49 C 0 50.652344 1.347656 52 3 52 L 22.382813 52 L 23.550781 54.34375 C 24.0625 55.363281 25.09375 56 26.234375 56 L 28 56 L 28 63 C 28 63.550781 28.445313 64 29 64 C 29.554688 64 30 63.550781 30 63 L 30 56 L 36 56 L 36 63 C 36 63.550781 36.445313 64 37 64 C 37.554688 64 38 63.550781 38 63 L 38 56 L 39.765625 56 C 40.90625 56 41.933594 55.363281 42.449219 54.34375 L 43.617188 52 L 61 52 C 62.652344 52 64 50.652344 64 49 C 64 47.699219 63.160156 46.597656 62 46.183594 L 62 36 C 63.101563 36 64 35.101563 64 34 L 64 26 C 64 24.898438 63.101563 24 62 24 L 61.960938 24 C 61.449219 16.191406 54.929688 10 47 10 Z M 17 12 C 24.167969 12 30 17.832031 30 25 L 30 46 L 4 46 L 4 25 C 4 17.832031 9.832031 12 17 12 Z M 24.453125 12 L 47 12 C 53.828125 12 59.449219 17.300781 59.960938 24 L 41.640625 24 C 40.910156 23.351563 39.980469 23 39 23 C 37.929688 23 36.929688 23.421875 36.171875 24.171875 C 35.421875 24.929688 35 25.929688 35 27 C 35 28.070313 35.421875 29.070313 36.171875 29.828125 C 36.929688 30.578125 37.929688 31 39 31 C 39.980469 31 40.910156 30.648438 41.640625 30 L 56.980469 30 L 57.859375 34.390625 C 58.039063 35.320313 58.871094 36 59.820313 36 L 60 36 L 60 46 L 32 46 L 32 25 C 32 19.441406 28.953125 14.589844 24.453125 12 Z M 13 24 C 12.445313 24 12 24.449219 12 25 C 12 25.550781 12.445313 26 13 26 L 21 26 C 21.554688 26 22 25.550781 22 25 C 22 24.449219 21.554688 24 21 24 Z M 39 25 C 39.53125 25 40.039063 25.210938 40.410156 25.589844 C 40.53125 25.710938 40.640625 25.851563 40.71875 26 C 40.910156 26.300781 41 26.640625 41 27 C 41 27.359375 40.910156 27.699219 40.71875 28 C 40.640625 28.148438 40.53125 28.289063 40.410156 28.410156 C 40.039063 28.789063 39.519531 28.980469 39 28.980469 C 38.480469 28.980469 37.960938 28.789063 37.589844 28.410156 C 37.363281 28.183594 37.214844 27.902344 37.113281 27.605469 C 37.09375 27.535156 37.054688 27.46875 37.042969 27.394531 C 37.023438 27.265625 37 27.136719 37 27 C 37 26.863281 37.023438 26.734375 37.039063 26.605469 C 37.054688 26.53125 37.089844 26.46875 37.113281 26.398438 C 37.210938 26.097656 37.363281 25.816406 37.589844 25.589844 C 37.960938 25.210938 38.46875 25 39 25 Z M 42.871094 26 L 62 26 L 62 34 L 59.820313 34 L 58.9375 29.609375 C 58.75 28.679688 57.929688 28 56.980469 28 L 42.871094 28 C 42.960938 27.679688 43 27.339844 43 27 C 43 26.660156 42.960938 26.320313 42.871094 26 Z M 36 40 C 35.445313 40 35 40.449219 35 41 L 35 43 C 35 43.550781 35.445313 44 36 44 C 36.554688 44 37 43.550781 37 43 L 37 41 C 37 40.449219 36.554688 40 36 40 Z M 41 40 C 40.445313 40 40 40.449219 40 41 L 40 43 C 40 43.550781 40.445313 44 41 44 C 41.554688 44 42 43.550781 42 43 L 42 41 C 42 40.449219 41.554688 40 41 40 Z M 46 40 C 45.445313 40 45 40.449219 45 41 L 45 43 C 45 43.550781 45.445313 44 46 44 C 46.554688 44 47 43.550781 47 43 L 47 41 C 47 40.449219 46.554688 40 46 40 Z M 51 40 C 50.445313 40 50 40.449219 50 41 L 50 43 C 50 43.550781 50.445313 44 51 44 C 51.554688 44 52 43.550781 52 43 L 52 41 C 52 40.449219 51.554688 40 51 40 Z M 56 40 C 55.445313 40 55 40.449219 55 41 L 55 43 C 55 43.550781 55.445313 44 56 44 C 56.554688 44 57 43.550781 57 43 L 57 41 C 57 40.449219 56.554688 40 56 40 Z M 3 48 L 61 48 C 61.550781 48 62 48.449219 62 49 C 62 49.550781 61.550781 50 61 50 L 3 50 C 2.449219 50 2 49.550781 2 49 C 2 48.449219 2.449219 48 3 48 Z M 24.617188 52 L 41.382813 52 L 40.65625 53.449219 C 40.488281 53.789063 40.144531 54 39.765625 54 L 26.234375 54 C 25.855469 54 25.511719 53.789063 25.34375 53.449219 Z"/></svg>